:version 1.10
:name ASF
:units
  mass 1
  length 1
  angle deg
:documentation
  ASF file generated by Kaydara
:root
  axis xyz
  order  tx ty tz rx ry rz
  position 0 0 0
  orientation 0 0 0
:bonedata
  begin
    id 1
    name lfemurDummy
    direction 0.61522 -0.761478 0.204097
    length 5.68318
    axis 0 -0 0 xyz
  end
  begin
    id 2
    name lfemur
    direction 0.34202 -0.939693 -5.84747e-008
    length 16.9147
    axis 0 -0 20 xyz
    dof rx ry rz
    limits( -inf , inf )
( -inf , inf )
( -inf , inf )

  end
  begin
    id 3
    name ltibia
    direction 0.34202 -0.939693 1.20839e-009
    length 18.0532
    axis 0 -0 20 xyz
    dof rz ry rx
    limits( -inf , inf )
( -inf , inf )
( -inf , inf )

  end
  begin
    id 4
    name lfoot
    direction 0.0841971 -0.23133 0.969225
    length 5.23822
    axis -90 7.62852e-016 20 xyz
    dof ry rx rz
    limits( -inf , inf )
( -inf , inf )
( -inf , inf )

  end
  begin
    id 5
    name ltoes
    direction 0 0 0
    length 0
    axis 0 0 0 xyz
    dof rz ry rx
    limits( -inf , inf )
( -inf , inf )
( -inf , inf )

  end
  begin
    id 6
    name rfemurDummy
    direction -0.625247 -0.75382 0.202044
    length 5.74091
    axis 0 -0 0 xyz
  end
  begin
    id 7
    name rfemur
    direction -0.34202 -0.939693 -1.47013e-008
    length 16.4922
    axis 0 -0 -20 xyz
    dof rx ry rz
    limits( -inf , inf )
( -inf , inf )
( -inf , inf )

  end
  begin
    id 8
    name rtibia
    direction -0.34202 -0.939693 -7.74345e-010
    length 18.2421
    axis 0 -0 -20 xyz
    dof rz ry rx
    limits( -inf , inf )
( -inf , inf )
( -inf , inf )

  end
  begin
    id 9
    name rfoot
    direction -0.124331 -0.341598 0.931586
    length 5.45787
    axis -90 -7.62852e-016 -20 xyz
    dof ry rx rz
    limits( -inf , inf )
( -inf , inf )
( -inf , inf )

  end
  begin
    id 10
    name rtoes
    direction 0 0 0
    length 0
    axis 0 0 0 xyz
    dof rz ry rx
    limits( -inf , inf )
( -inf , inf )
( -inf , inf )

  end
  begin
    id 11
    name lowerbackDummy
    direction 0 0 0
    length 0
    axis 0 -0 0 xyz
  end
  begin
    id 12
    name lowerback
    direction -0.0218484 0.994884 -0.0986304
    length 4.45607
    axis 0 -0 0 xyz
    dof rx ry rz
    limits( -inf , inf )
( -inf , inf )
( -inf , inf )

  end
  begin
    id 13
    name upperback
    direction -0.00973057 0.999717 -0.0217111
    length 4.47449
    axis 0 -0 0 xyz
    dof rx ry rz
    limits( -inf , inf )
( -inf , inf )
( -inf , inf )

  end
  begin
    id 14
    name thorax
    direction -0.000928171 0.999699 0.0245198
    length 4.50973
    axis 0 -0 0 xyz
    dof rx ry rz
    limits( -inf , inf )
( -inf , inf )
( -inf , inf )

  end
  begin
    id 15
    name rclavicle
    direction -0.9009 0.425937 -0.0834055
    length 7.28587
    axis 0 -0 0 xyz
    dof rx ry rz
    limits( -inf , inf )
( -inf , inf )
( -inf , inf )

  end
  begin
    id 16
    name rhumerus
    direction -1 -2.23604e-007 -1.42637e-007
    length 13.5704
    axis 180 30 90 xyz
    dof rx ry rz
    limits( -inf , inf )
( -inf , inf )
( -inf , inf )

  end
  begin
    id 17
    name rradius
    direction -1 5.68281e-008 -4.4952e-007
    length 8.06782
    axis 180 30 90 xyz
    dof rz ry rx
    limits( -inf , inf )
( -inf , inf )
( -inf , inf )

  end
  begin
    id 18
    name rwrist
    direction -1 1.51393e-007 1.38143e-007
    length 4.03391
    axis -90 -90 0 xyz
    dof rz rx ry
    limits( -inf , inf )
( -inf , inf )
( -inf , inf )

  end
  begin
    id 19
    name rthumb
    direction 0 0 0
    length 0
    axis 0 0 0 xyz
    dof ry rx rz
    limits( -inf , inf )
( -inf , inf )
( -inf , inf )

  end
  begin
    id 20
    name rhand
    direction -1 -3.34077e-007 -5.59631e-007
    length 1.29744
    axis -90 -90 0 xyz
    dof ry rx rz
    limits( -inf , inf )
( -inf , inf )
( -inf , inf )

  end
  begin
    id 21
    name rfingers
    direction 0 0 0
    length 0
    axis 0 0 0 xyz
    dof rz ry rx
    limits( -inf , inf )
( -inf , inf )
( -inf , inf )

  end
  begin
    id 22
    name lclavicle
    direction 0.940017 0.332249 -0.0773232
    length 8.29589
    axis 0 -0 0 xyz
    dof rx ry rz
    limits( -inf , inf )
( -inf , inf )
( -inf , inf )

  end
  begin
    id 23
    name lhumerus
    direction 1 7.41158e-008 -1.44768e-008
    length 12.0042
    axis 180 -30 -90 xyz
    dof rx ry rz
    limits( -inf , inf )
( -inf , inf )
( -inf , inf )

  end
  begin
    id 24
    name lradius
    direction 1 -1.32972e-007 3.10821e-007
    length 8.1902
    axis 180 -30 -90 xyz
    dof rz ry rx
    limits( -inf , inf )
( -inf , inf )
( -inf , inf )

  end
  begin
    id 25
    name lwrist
    direction 1 3.08957e-007 4.01394e-007
    length 4.09509
    axis -90 90 0 xyz
    dof rz rx ry
    limits( -inf , inf )
( -inf , inf )
( -inf , inf )

  end
  begin
    id 26
    name lthumb
    direction 0 0 0
    length 0
    axis 0 0 0 xyz
    dof ry rx rz
    limits( -inf , inf )
( -inf , inf )
( -inf , inf )

  end
  begin
    id 27
    name lhand
    direction 1 -1.64125e-007 -6.99514e-007
    length 1.37229
    axis -90 90 0 xyz
    dof ry rx rz
    limits( -inf , inf )
( -inf , inf )
( -inf , inf )

  end
  begin
    id 28
    name lfingers
    direction 0 0 0
    length 0
    axis 0 0 0 xyz
    dof rz ry rx
    limits( -inf , inf )
( -inf , inf )
( -inf , inf )

  end
  begin
    id 29
    name lowerneck
    direction -0.030798 0.998024 0.0547665
    length 3.93918
    axis 0 -0 0 xyz
    dof rx ry rz
    limits( -inf , inf )
( -inf , inf )
( -inf , inf )

  end
  begin
    id 30
    name upperneck
    direction 0.0531588 0.996611 -0.0627736
    length 3.95491
    axis 0 -0 0 xyz
    dof rx ry rz
    limits( -inf , inf )
( -inf , inf )
( -inf , inf )

  end
  begin
    id 31
    name head
    direction 0 0 0
    length 0
    axis 0 0 0 xyz
    dof rx ry rz
    limits( -inf , inf )
( -inf , inf )
( -inf , inf )

  end
:hierarchy
  begin
    root lfemurDummy rfemurDummy lowerbackDummy
    lfemurDummy lfemur
    lfemur ltibia
    ltibia lfoot
    lfoot ltoes
    rfemurDummy rfemur
    rfemur rtibia
    rtibia rfoot
    rfoot rtoes
    lowerbackDummy lowerback
    lowerback upperback
    upperback thorax
    thorax rclavicle lclavicle lowerneck
    rclavicle rhumerus
    rhumerus rradius
    rradius rwrist
    rwrist rthumb rhand
    rhand rfingers
    lclavicle lhumerus
    lhumerus lradius
    lradius lwrist
    lwrist lthumb lhand
    lhand lfingers
    lowerneck upperneck
    upperneck head
  end

:SAMPLES-PER-SECOND 30
:FULLY-SPECIFIED
:DEGREES
19
root  -2.647666668 37.52911185 7.380978141 170.367981 -85.37640381 -167.9550171
lowerback  13.49450016 1.553490043 -5.273409843
upperback  4.687799931 1.112460017 -0.6119850278
thorax  -2.713670015 0.4336650074 2.164799929
lowerneck  -5.164820194 12.43410015 -1.934820056
upperneck  7.699719906 17.09860039 -4.155789852
head  3.628289938 8.20855999 -0.2096329927
lclavicle  0 -9.442270133e-015 7.951389973e-016
lhumerus  -23.34230042 -1.752910018 60.97230148
lradius  2.309175259e-031 -2.671432885e-031 130.8399963
lwrist  -7.062250077e-031 -1.765562519e-031 11.09259987
lhand  -1.496451383e-031 -27.76390076 20.11240005
lfingers  90 7.125020027 -90
lthumb  89.89689403 5.08795885 91.16245106
rclavicle  0 -9.442270133e-015 7.951389973e-016
rhumerus  -40.67720032 21.7140007 -88.12220001
rradius  -3.008379042e-032 3.518286599e-031 94.88729858
rwrist  7.062250077e-031 -1.765562519e-031 -4.7884202
rhand  -7.920061211e-032 -33.2840004 9.303460121
rfingers  -90 -7.125020027 -90
rthumb  -92.93752616 -24.25625642 -97.11982154
rfemur  -9.012949944 18.26959991 0.5610060096
rtibia  -0 0 53.45320129
rfoot  -6.657194658e-032 -5.98898983 1.969580054
rtoes  5.373923086 19.29304026 -105.8922705
lfemur  -37.19260025 5.17828989 2.243740082
ltibia  -0 0 57.50889969
lfoot  -0 -0.4050610065 -8.888460159
ltoes  -4.250644065 -19.5611806 -102.515957
20
root  -2.847422202 37.64022166 7.362155464 136.315979 -87.38089752 -134.6370239
lowerback  13.54450035 1.225829959 -5.087860107
upperback  4.859379768 0.722589016 -0.2508530021
thorax  -2.532900095 0.2329750061 2.50067997
lowerneck  -5.527639866 12.08790016 -2.257400036
upperneck  8.42609024 16.63940048 -3.336859941
head  3.832590103 7.975240231 0.1187909991
lclavicle  0 -9.442270133e-015 7.951389973e-016
lhumerus  -18.70709991 -2.104870081 57.64970016
lradius  2.115276699e-031 -2.827445583e-031 126.8010025
lwrist  0 -0 12.23900032
lhand  -1.496451383e-031 -27.76390076 20.11240005
lfingers  90 7.125020027 -90
lthumb  89.89689403 5.08795885 91.16245106
rclavicle  0 -9.442270133e-015 7.951389973e-016
rhumerus  -41.88290024 21.75130081 -89.25630188
rradius  -1.25297846e-032 3.528901314e-031 92.03350067
rwrist  7.062250077e-031 -1.765562519e-031 -5.160270214
rhand  -7.920061211e-032 -33.2840004 9.303460121
rfingers  -90 -7.125020027 -90
rthumb  -92.93752616 -24.25625642 -97.11982154
rfemur  -6.572790146 18.91259956 2.559259892
rtibia  -0 0 52.48279953
rfoot  -6.630572866e-032 -3.101710081 3.130409956
rtoes  5.373923086 19.29304026 -105.8922705
lfemur  -38.28290176 4.808000088 3.166340113
ltibia  -0 0 58.14810181
lfoot  -0 3.099489927 -10.84619999
ltoes  -4.250644065 -19.5611806 -102.515957
21
root  -3.042200043 37.72822102 7.360600299 65.53497314 -86.89379883 -64.75201416
lowerback  14.01280022 0.838136971 -4.579870224
upperback  4.959229946 0.2627879977 -0.0422875993
thorax  -2.643699884 0.007569700014 2.504230022
lowerneck  -5.867420197 11.60169983 -2.438740015
upperneck  9.138130188 15.96319962 -2.412309885
head  4.039609909 7.649290085 0.4499570131
lclavicle  0 -9.442270133e-015 7.951389973e-016
lhumerus  -13.21749973 -2.801949978 54.56409836
lradius  1.873040299e-031 -2.99342013e-031 122.0350037
lwrist  -7.062250077e-031 -1.765562519e-031 13.16699982
lhand  -1.496451383e-031 -27.76390076 20.11240005
lfingers  90 7.125020027 -90
lthumb  89.89689403 5.08795885 91.16245106
rclavicle  0 -9.442270133e-015 7.951389973e-016
rhumerus  -42.98799896 21.52779961 -90.48999786
rradius  4.250484921e-033 3.53086921e-031 89.31030273
rwrist  1.412450015e-030 -1.765562519e-031 -5.930089951
rhand  -7.920061211e-032 -33.2840004 9.303460121
rfingers  -90 -7.125020027 -90
rthumb  -92.93752616 -24.25625642 -97.11982154
rfemur  -3.585880041 19.43160057 4.938089848
rtibia  -0 0 51.19549942
rfoot  -4.41404207e-032 -0.4493930042 4.327340126
rtoes  5.373923086 19.29304026 -105.8922705
lfemur  -39.50419998 4.129010201 3.97796011
ltibia  -0 0 58.71450043
lfoot  -0 6.286960125 -12.12460041
ltoes  -4.250644065 -19.5611806 -102.515957
22
root  -3.245800123 37.77044401 7.353644484 39.73400879 -84.06800079 -39.7869873
lowerback  14.48880005 0.4659959972 -4.151800156
upperback  4.957330227 -0.1801870018 0.1413030028
thorax  -2.869420052 -0.2036570013 2.52895999
lowerneck  -6.37184 11.07409954 -2.817359924
upperneck  10.01280022 15.21679974 -1.127220035
head  4.300799847 7.298210144 0.9429990053
lclavicle  0 -9.442270133e-015 7.951389973e-016
lhumerus  -7.203939915 -3.378099918 51.79809952
lradius  1.580486954e-031 -3.15767399e-031 116.5889969
lwrist  0 -0 14.08539963
lhand  -1.496451383e-031 -27.76390076 20.11240005
lfingers  90 7.125020027 -90
lthumb  89.89689403 5.08795885 91.16245106
rclavicle  0 -9.442270133e-015 7.951389973e-016
rhumerus  -44.09899902 21.59280014 -91.8246994
rradius  1.958510622e-032 3.525689493e-031 86.82050323
rwrist  7.062250077e-031 -0 -7.166369915
rhand  -7.920061211e-032 -33.2840004 9.303460121
rfingers  -90 -7.125020027 -90
rthumb  -92.93752616 -24.25625642 -97.11982154
rfemur  -0.5252850056 20.02029991 7.585420132
rtibia  -0 0 49.86000061
rfoot  -4.414922092e-032 1.229099989 5.286079884
rtoes  5.373923086 19.29304026 -105.8922705
lfemur  -40.79290009 3.516580105 4.670589924
ltibia  -0 0 59.20959854
lfoot  -0 8.465909958 -12.85369968
ltoes  -4.250644065 -19.5611806 -102.515957
23
root  -3.459666845 37.77555631 7.311977927 31.43798828 -81.04969788 -31.97399902
lowerback  14.48130035 0.1469909996 -4.108709812
upperback  4.900800228 -0.5764330029 0.2850579917
thorax  -2.894020081 -0.3937669992 2.721250057
lowerneck  -6.904200077 10.5376997 -3.287689924
upperneck  10.71370029 14.44040012 0.2715570033
head  4.50924015 6.948190212 1.488590002
lclavicle  0 -9.442270133e-015 7.951389973e-016
lhumerus  -0.8732860088 -3.646369934 49.30899811
lradius  1.235298083e-031 -3.308002824e-031 110.4769974
lwrist  0 -1.765562519e-031 14.62969971
lhand  -1.496451383e-031 -27.76390076 20.11240005
lfingers  90 7.125020027 -90
lthumb  89.89689403 5.08795885 91.16245106
rclavicle  0 -9.442270133e-015 7.951389973e-016
rhumerus  -45.1352005 22.2052002 -93.3792038
rradius  3.264419565e-032 3.516003368e-031 84.69560242
rwrist  7.062250077e-031 -1.765562519e-031 -8.684329987
rhand  -7.920061211e-032 -33.2840004 9.303460121
rfingers  -90 -7.125020027 -90
rthumb  -92.93752616 -24.25625642 -97.11982154
rfemur  2.000920057 20.61000061 10.1814003
rtibia  -0 0 48.72340012
rfoot  -4.416702393e-032 2.038860083 5.975769997
rtoes  5.373923086 19.29304026 -105.8922705
lfemur  -42.31169891 3.327419996 5.164490223
ltibia  -0 0 59.59429932
lfoot  -0 9.313019753 -13.13910007
ltoes  -4.250644065 -19.5611806 -102.515957
24
root  -3.672555488 37.75866651 7.241599766 27.87298584 -78.36399841 -28.44000244
lowerback  13.94320011 0.007945969701 -4.394460201
upperback  4.794260025 -0.7555260062 0.3140169978
thorax  -2.696990013 -0.4787400067 2.935070038
lowerneck  -7.402659893 9.93873024 -3.866359949
upperneck  11.5486002 13.54650021 1.910840034
head  4.274759769 6.573569775 1.930629969
lclavicle  0 -9.442270133e-015 7.951389973e-016
lhumerus  5.946529865 -3.908410072 47.19889832
lradius  8.385203283e-032 -3.430120653e-031 103.7369995
lwrist  -7.062250077e-031 -0 14.82820034
lhand  -1.496451383e-031 -27.76390076 20.11240005
lfingers  90 7.125020027 -90
lthumb  89.89689403 5.08795885 91.16245106
rclavicle  0 -9.442270133e-015 7.951389973e-016
rhumerus  -45.87070084 22.91200066 -95.08080292
rradius  4.369476926e-032 3.503986409e-031 82.89189911
rwrist  7.062250077e-031 -0 -10.48620033
rhand  -7.920061211e-032 -33.2840004 9.303460121
rfingers  -90 -7.125020027 -90
rthumb  -92.93752616 -24.25625642 -97.11982154
rfemur  3.643589973 21.12960052 12.44649982
rtibia  -0 0 47.89889908
rfoot  -8.835791739e-032 2.435149908 6.649759769
rtoes  5.373923086 19.29304026 -105.8922705
lfemur  -44.04859924 3.659209967 5.386270046
ltibia  -0 0 59.83620071
lfoot  -0 9.073829651 -13.30230045
ltoes  -4.250644065 -19.5611806 -102.515957
25
root  -3.901022063 37.72088899 7.190044283 25.53100586 -75.71600342 -26.03399658
lowerback  13.34020042 -0.02443259954 -4.63917017
upperback  4.659520149 -0.7845050097 0.2958689928
thorax  -2.506139994 -0.4883080125 3.050299883
lowerneck  -8.008970261 9.19342041 -4.839360237
upperneck  12.0326004 12.47630024 3.775640011
head  4.364860058 6.11439991 2.622159958
lclavicle  0 -9.442270133e-015 7.951389973e-016
lhumerus  13.01509953 -4.540880203 45.58589935
lradius  4.231171092e-032 -3.505683378e-031 96.88200378
lwrist  -7.062250077e-031 -1.765562519e-031 14.96510029
lhand  -1.496451383e-031 -27.76390076 20.11240005
lfingers  90 7.125020027 -90
lthumb  89.89689403 5.08795885 91.16245106
rclavicle  0 -9.442270133e-015 7.951389973e-016
rhumerus  -46.50799942 23.47220039 -96.64330292
rradius  5.157519445e-032 3.493256929e-031 81.60140228
rwrist  1.412450015e-030 -0 -12.26179981
rhand  -7.920061211e-032 -33.2840004 9.303460121
rfingers  -90 -7.125020027 -90
rthumb  -92.93752616 -24.25625642 -97.11982154
rfemur  5.028190136 21.26709938 14.60849953
rtibia  -0 0 47.36489868
rfoot  -0 2.195149899 7.258619785
rtoes  5.373923086 19.29304026 -105.8922705
lfemur  -45.7989006 3.88609004 5.352399826
ltibia  -0 0 59.99060059
lfoot  -0 8.129870415 -13.66950035
ltoes  -4.250644065 -19.5611806 -102.515957
